<svg version="1.1" xmlns="http://www.w3.org/2000/svg" xmlns:xlink="http://www.w3.org/1999/xlink" width="600" height="300" viewBox="0,0,600,300"><defs><linearGradient x1="0" y1="0" x2="0" y2="300" gradientUnits="userSpaceOnUse" id="c-bg"><stop offset="0" stop-color="#0d3b2e"/><stop offset="1" stop-color="#04110c"/></linearGradient><linearGradient x1="0" y1="0" x2="0" y2="150" gradientUnits="userSpaceOnUse" id="c-panel"><stop offset="0" stop-color="#16a37a"/><stop offset="1" stop-color="#0b6e52"/></linearGradient></defs><g stroke="none" stroke-width="1"><path d="M0,300v-300h600v300z" fill="url(#c-bg)" stroke="none" stroke-width="0"/><!-- 音频波形条 --><g fill-opacity="0.55" fill="#3ddc9f"><rect x="60" y="128" width="10" height="34" rx="5"/><rect x="82" y="112" width="10" height="66" rx="5"/><rect x="104" y="96" width="10" height="98" rx="5"/><rect x="126" y="120" width="10" height="50" rx="5"/><rect x="148" y="132" width="10" height="26" rx="5"/></g><g fill-opacity="0.28" fill="#9ff2d0"><rect x="452" y="132" width="10" height="26" rx="5"/><rect x="474" y="118" width="10" height="54" rx="5"/><rect x="496" y="96" width="10" height="98" rx="5"/><rect x="518" y="112" width="10" height="66" rx="5"/><rect x="540" y="128" width="10" height="34" rx="5"/></g><!-- 中部旋转方块 + 松树音符图标 --><g slice-area-rotate="0" transform="rotate(0,300,140)"><rect x="236" y="66" width="128" height="148" rx="22" fill="url(#c-panel)" stroke="#ffffff" stroke-opacity="0.15" stroke-width="1.5"/><path d="M262,196C248,196 240,188 240,174C240,150 258,146 258,134C276,140 272,154 272,154C286,142 300,146 300,146C314,132 332,140 332,140C350,140 360,150 360,150C360,164 348,170 348,170C346,190 330,196 316,196Z" fill="#c8ffe8"/><path d="M300,168C300,168 286,146 300,132C312,144 306,160 306,168Z" fill="none" stroke="#0b6e52" stroke-width="2.5" stroke-linecap="round" stroke-linejoin="round"/><g transform="translate(300,158)"><circle cx="0" cy="0" r="3.4" fill="#0b6e52"/></g><path d="M300,170 v16 M300,186 c-5,4 -2,10 4,9 M300,174 l9,-2" fill="none" stroke="#0b6e52" stroke-width="3" stroke-linecap="round"/></g><!-- 名称面板 --><g><rect x="196" y="226" width="208" height="44" rx="22" fill="#ffffff" fill-opacity="0.1" stroke="#ffffff" stroke-opacity="0.18" stroke-width="1.2"/><text font-size="26" fill="#ffffff" font-family="Segoe UI, Arial, sans-serif" font-weight="700" text-anchor="middle" x="300" y="255">PineSounds</text></g><!-- 右下角水印（品牌区块） --><g fill="#ffffff" fill-opacity="0.5"><path d="M553.7,243.5 h17.15 l-4.9,4.9 h-9.8 l-9.8,9.8 v19.6 l-4.9,-4.9 v-17.15 z M541.4,277.8 v14.7 h4.9 v-9.8 z M575.7,243.5 h14.7 l-14.7,14.7 h-14.7 l-4.9,4.9 v19.6 l-4.9,4.9 v-26.95 z M551.2,292.5 l4.9,-4.9 h22.05 l7.35,-7.35 v-7.35 h-9.8 l4.9,-4.9 h9.8 v14.7 l-9.8,9.8 h-29.4 z M590.4,248.4 v4.9 l-19.6,19.6 h-13.6 v-4.9 z"/></g></g></svg>